<svg width="261" height="48" viewBox="0 0 261 48" fill="none" xmlns="http://www.w3.org/2000/svg">
<path d="M83.2188 32.4531H87.8906C87.7969 33.9844 87.375 35.3438 86.625 36.5312C85.8854 37.7188 84.849 38.6458 83.5156 39.3125C82.1927 39.9792 80.599 40.3125 78.7344 40.3125C77.276 40.3125 75.9688 40.0625 74.8125 39.5625C73.6562 39.0521 72.6667 38.3229 71.8438 37.375C71.0312 36.4271 70.4115 35.2812 69.9844 33.9375C69.5573 32.5938 69.3438 31.0885 69.3438 29.4219V27.8438C69.3438 26.1771 69.5625 24.6719 70 23.3281C70.4479 21.974 71.0833 20.8229 71.9062 19.875C72.7396 18.9271 73.7344 18.1979 74.8906 17.6875C76.0469 17.1771 77.3385 16.9219 78.7656 16.9219C80.6615 16.9219 82.2604 17.2656 83.5625 17.9531C84.875 18.6406 85.8906 19.5885 86.6094 20.7969C87.3385 22.0052 87.776 23.3802 87.9219 24.9219H83.2344C83.1823 24.0052 83 23.2292 82.6875 22.5938C82.375 21.9479 81.901 21.4635 81.2656 21.1406C80.6406 20.8073 79.8073 20.6406 78.7656 20.6406C77.9844 20.6406 77.3021 20.7865 76.7188 21.0781C76.1354 21.3698 75.6458 21.8125 75.25 22.4062C74.8542 23 74.5573 23.75 74.3594 24.6562C74.1719 25.5521 74.0781 26.6042 74.0781 27.8125V29.4219C74.0781 30.599 74.1667 31.6354 74.3438 32.5312C74.5208 33.4167 74.7917 34.1667 75.1562 34.7812C75.5312 35.3854 76.0104 35.8438 76.5938 36.1562C77.1875 36.4583 77.901 36.6094 78.7344 36.6094C79.7135 36.6094 80.5208 36.4531 81.1562 36.1406C81.7917 35.8281 82.276 35.3646 82.6094 34.75C82.9531 34.1354 83.1562 33.3698 83.2188 32.4531ZM95.1719 33.7188L100.844 23.0938H105.344V40H100.844V29.3594L95.1719 40H90.6719V23.0938H95.1719V33.7188ZM119.172 15.6562H122.812C122.812 16.5 122.708 17.224 122.5 17.8281C122.292 18.4219 121.958 18.9323 121.5 19.3594C121.042 19.776 120.427 20.1302 119.656 20.4219C118.885 20.7135 117.932 20.9635 116.797 21.1719C115.922 21.349 115.161 21.6406 114.516 22.0469C113.88 22.4531 113.354 23.0104 112.938 23.7188C112.531 24.4167 112.24 25.3021 112.062 26.375C111.885 27.4375 111.823 28.7188 111.875 30.2188V30.9688L108.375 31.4531V30.7031C108.385 28.6615 108.568 26.8854 108.922 25.375C109.286 23.8646 109.802 22.5938 110.469 21.5625C111.135 20.5208 111.938 19.6927 112.875 19.0781C113.812 18.4531 114.854 18.0156 116 17.7656C116.771 17.599 117.385 17.4375 117.844 17.2812C118.312 17.1146 118.651 16.9062 118.859 16.6562C119.068 16.4062 119.172 16.0729 119.172 15.6562ZM117.203 24.0469C118.349 24.0469 119.365 24.2448 120.25 24.6406C121.135 25.026 121.88 25.5729 122.484 26.2812C123.089 26.9896 123.547 27.8229 123.859 28.7812C124.172 29.7396 124.328 30.7865 124.328 31.9219V32.25C124.328 33.4062 124.151 34.4792 123.797 35.4688C123.453 36.4479 122.943 37.3021 122.266 38.0312C121.589 38.7604 120.755 39.3281 119.766 39.7344C118.776 40.1302 117.646 40.3281 116.375 40.3281C115.094 40.3281 113.953 40.1146 112.953 39.6875C111.964 39.25 111.125 38.6406 110.438 37.8594C109.76 37.0677 109.245 36.1458 108.891 35.0938C108.547 34.0312 108.375 32.875 108.375 31.625V31.2812C108.375 31.1042 108.453 30.9323 108.609 30.7656C108.776 30.5885 108.969 30.3906 109.188 30.1719C109.417 29.9531 109.62 29.6771 109.797 29.3438C110.422 28.1875 111.104 27.2188 111.844 26.4375C112.583 25.6458 113.391 25.0521 114.266 24.6562C115.151 24.25 116.13 24.0469 117.203 24.0469ZM116.344 27.5625C115.5 27.5625 114.823 27.7656 114.312 28.1719C113.802 28.5677 113.432 29.099 113.203 29.7656C112.984 30.4219 112.875 31.1406 112.875 31.9219V32.25C112.875 32.8854 112.938 33.4792 113.062 34.0312C113.188 34.5729 113.385 35.0573 113.656 35.4844C113.927 35.901 114.286 36.2292 114.734 36.4688C115.182 36.6979 115.729 36.8125 116.375 36.8125C117 36.8125 117.531 36.6979 117.969 36.4688C118.417 36.2292 118.776 35.901 119.047 35.4844C119.318 35.0573 119.516 34.5729 119.641 34.0312C119.766 33.4792 119.828 32.8854 119.828 32.25V31.9219C119.828 31.3281 119.766 30.7708 119.641 30.25C119.516 29.7188 119.318 29.2552 119.047 28.8594C118.776 28.4531 118.417 28.1354 117.969 27.9062C117.521 27.6771 116.979 27.5625 116.344 27.5625ZM131.266 33.7188L136.938 23.0938H141.438V40H136.938V29.3594L131.266 40H126.766V23.0938H131.266V33.7188ZM149.406 26.3438V46.5H144.906V23.0938H149.078L149.406 26.3438ZM160.109 31.3594V31.6875C160.109 32.9167 159.964 34.0573 159.672 35.1094C159.391 36.1615 158.974 37.0781 158.422 37.8594C157.87 38.6302 157.182 39.2344 156.359 39.6719C155.547 40.099 154.609 40.3125 153.547 40.3125C152.516 40.3125 151.62 40.1042 150.859 39.6875C150.099 39.2708 149.458 38.6875 148.938 37.9375C148.427 37.1771 148.016 36.2969 147.703 35.2969C147.391 34.2969 147.151 33.224 146.984 32.0781V31.2188C147.151 29.9896 147.391 28.8646 147.703 27.8438C148.016 26.8125 148.427 25.9219 148.938 25.1719C149.458 24.4115 150.094 23.8229 150.844 23.4062C151.604 22.9896 152.495 22.7812 153.516 22.7812C154.589 22.7812 155.531 22.9844 156.344 23.3906C157.167 23.7969 157.854 24.3802 158.406 25.1406C158.969 25.901 159.391 26.8073 159.672 27.8594C159.964 28.9115 160.109 30.0781 160.109 31.3594ZM155.594 31.6875V31.3594C155.594 30.6406 155.531 29.9792 155.406 29.375C155.292 28.7604 155.104 28.224 154.844 27.7656C154.594 27.3073 154.26 26.9531 153.844 26.7031C153.438 26.4427 152.943 26.3125 152.359 26.3125C151.745 26.3125 151.219 26.4115 150.781 26.6094C150.354 26.8073 150.005 27.0938 149.734 27.4688C149.464 27.8438 149.26 28.2917 149.125 28.8125C148.99 29.3333 148.906 29.9219 148.875 30.5781V32.75C148.927 33.5208 149.073 34.2135 149.312 34.8281C149.552 35.4323 149.922 35.9115 150.422 36.2656C150.922 36.6198 151.578 36.7969 152.391 36.7969C152.984 36.7969 153.484 36.6667 153.891 36.4062C154.297 36.1354 154.625 35.7656 154.875 35.2969C155.135 34.8281 155.318 34.2865 155.422 33.6719C155.536 33.0573 155.594 32.3958 155.594 31.6875ZM165.828 28.1094H170.734C172.276 28.1094 173.589 28.3646 174.672 28.875C175.766 29.375 176.599 30.0729 177.172 30.9688C177.755 31.8646 178.047 32.901 178.047 34.0781C178.047 34.9323 177.88 35.724 177.547 36.4531C177.224 37.1719 176.75 37.7969 176.125 38.3281C175.5 38.8594 174.734 39.2708 173.828 39.5625C172.922 39.8542 171.891 40 170.734 40H163.016V23.0938H167.531V36.5H170.734C171.411 36.5 171.953 36.3906 172.359 36.1719C172.776 35.9427 173.078 35.6458 173.266 35.2812C173.464 34.9167 173.562 34.5208 173.562 34.0938C173.562 33.6458 173.464 33.2396 173.266 32.875C173.078 32.5 172.776 32.1979 172.359 31.9688C171.953 31.7396 171.411 31.625 170.734 31.625H165.828V28.1094ZM203.719 17.25V20.9219H193.484V40H188.812V17.25H203.719ZM191.875 25.5469H197.188C198.979 25.5469 200.521 25.8438 201.812 26.4375C203.104 27.0312 204.099 27.8646 204.797 28.9375C205.495 30.0104 205.844 31.2604 205.844 32.6875C205.844 33.7708 205.646 34.7604 205.25 35.6562C204.854 36.5417 204.276 37.3125 203.516 37.9688C202.766 38.6146 201.859 39.1146 200.797 39.4688C199.734 39.8229 198.531 40 197.188 40H188.812V17.25H193.516V36.3438H197.188C198.083 36.3438 198.823 36.1771 199.406 35.8438C199.99 35.5104 200.427 35.0677 200.719 34.5156C201.021 33.9531 201.172 33.3333 201.172 32.6562C201.172 32.0104 201.021 31.4271 200.719 30.9062C200.427 30.375 199.99 29.9583 199.406 29.6562C198.823 29.3542 198.083 29.2031 197.188 29.2031H191.875V25.5469ZM217.75 36.1875V28.6562C217.75 28.1146 217.661 27.651 217.484 27.2656C217.307 26.8698 217.031 26.5625 216.656 26.3438C216.292 26.125 215.818 26.0156 215.234 26.0156C214.734 26.0156 214.302 26.1042 213.938 26.2812C213.573 26.4479 213.292 26.6927 213.094 27.0156C212.896 27.3281 212.797 27.6979 212.797 28.125H208.297C208.297 27.4062 208.464 26.724 208.797 26.0781C209.13 25.4323 209.615 24.8646 210.25 24.375C210.885 23.875 211.641 23.4844 212.516 23.2031C213.401 22.9219 214.391 22.7812 215.484 22.7812C216.797 22.7812 217.964 23 218.984 23.4375C220.005 23.875 220.807 24.5312 221.391 25.4062C221.984 26.2812 222.281 27.375 222.281 28.6875V35.9219C222.281 36.849 222.339 37.6094 222.453 38.2031C222.568 38.7865 222.734 39.2969 222.953 39.7344V40H218.406C218.188 39.5417 218.021 38.9688 217.906 38.2812C217.802 37.5833 217.75 36.8854 217.75 36.1875ZM218.344 29.7031L218.375 32.25H215.859C215.266 32.25 214.75 32.3177 214.312 32.4531C213.875 32.5885 213.516 32.7812 213.234 33.0312C212.953 33.2708 212.745 33.5521 212.609 33.875C212.484 34.1979 212.422 34.5521 212.422 34.9375C212.422 35.3229 212.51 35.6719 212.688 35.9844C212.865 36.2865 213.12 36.526 213.453 36.7031C213.786 36.8698 214.177 36.9531 214.625 36.9531C215.302 36.9531 215.891 36.8177 216.391 36.5469C216.891 36.276 217.276 35.9427 217.547 35.5469C217.828 35.151 217.974 34.776 217.984 34.4219L219.172 36.3281C219.005 36.7552 218.776 37.1979 218.484 37.6562C218.203 38.1146 217.844 38.5469 217.406 38.9531C216.969 39.349 216.443 39.6771 215.828 39.9375C215.214 40.1875 214.484 40.3125 213.641 40.3125C212.568 40.3125 211.594 40.099 210.719 39.6719C209.854 39.2344 209.167 38.6354 208.656 37.875C208.156 37.1042 207.906 36.2292 207.906 35.25C207.906 34.3646 208.073 33.5781 208.406 32.8906C208.74 32.2031 209.229 31.625 209.875 31.1562C210.531 30.6771 211.349 30.3177 212.328 30.0781C213.307 29.8281 214.443 29.7031 215.734 29.7031H218.344ZM237.328 29.9219V33.4219H228.734V29.9219H237.328ZM230.234 23.0938V40H225.734V23.0938H230.234ZM240.375 23.0938V40H235.859V23.0938H240.375ZM248.672 23.0938V40H244.172V23.0938H248.672ZM259.656 23.0938L252.375 33.6719H247.875L247.328 29.5156H250.312L253.953 23.0938H259.656ZM254.156 40L250 32.8594L253.922 30.6875L260.188 40H254.156Z" fill="#1C1C1C"/>
<path d="M16.5819 40L16.5791 39.9945L3.03424 16.6666H0L13.5449 39.9952L13.5418 40H16.5819Z" fill="#E00606"/>
<path d="M28.7151 40L28.7123 39.9945L15.1672 16.6666H12.1339L25.6788 39.9945L25.675 40H28.7151Z" fill="#E00606"/>
<path d="M21.2338 16.6666H18.2006L31.7455 39.9945L31.7414 40H34.7815L21.2338 16.6666Z" fill="#E00606"/>
<path d="M39.8003 4.76837e-05H36.7661L25.6942 19.0706L27.2113 21.6828L39.8003 4.76837e-05Z" fill="#E00606"/>
<path d="M22.6486 40L22.6456 39.9945L9.10072 16.6666H6.06749L19.6124 39.9945L19.6086 40H22.6486Z" fill="#E00606"/>
<path d="M30.2446 26.9066L45.8668 5.53131e-05H42.8336L28.7274 24.2942L28.7439 24.3219L30.2446 26.9066Z" fill="#E00606"/>
<path d="M33.2778 32.1315L51.9335 3.43323e-05H48.9003L31.7607 29.5181L31.7771 29.5457L33.2778 32.1315Z" fill="#E00606"/>
<path d="M58 0H54.9668L34.7942 34.7429L34.8104 34.7706L36.3113 37.3554L58 0Z" fill="#E00606"/>
</svg>
